<!-- icon666.com - MILLIONS vector ICONS FREE --><svg version="1.1" id="Capa_1" xmlns="http://www.w3.org/2000/svg" xmlns:xlink="http://www.w3.org/1999/xlink" x="0px" y="0px" viewBox="0 0 512 512" style="enable-background:new 0 0 512 512;" xml:space="preserve"><g><g><path d="M200.372,153.667L275,144.221V0H150c-41.355,0-75,33.645-75,75v362c0,41.355,33.645,75,75,75h125V367.779l-74.627-9.446 c-2.493-0.316-4.373-2.448-4.373-4.961V158.628C196,156.115,197.88,153.983,200.372,153.667z M196.604,388.095L245,394.221V482 h-95c-24.813,0-45-20.187-45-45V75c0-24.813,20.187-45,45-45h95v87.779l-48.396,6.126C179.157,126.114,166,141.042,166,158.628 v194.744C166,370.958,179.157,385.886,196.604,388.095z"></path></g></g><g><g><path d="M362.633,75.425l-21.275,21.15c87.394,87.907,87.394,230.942,0,318.85l21.275,21.15C410.589,388.337,437,324.207,437,256 S410.589,123.663,362.633,75.425z"></path></g></g><g><g><path d="M312.636,125.717l-21.275,21.15c59.825,60.176,59.825,158.09,0,218.266l21.275,21.15 C384.055,314.445,384.055,197.555,312.636,125.717z"></path></g></g><g><g><path d="M262.638,176.008l-21.275,21.15c32.255,32.445,32.255,85.238,0,117.684l21.275,21.15 C306.488,291.885,306.488,220.115,262.638,176.008z"></path></g></g></svg>